<svg id="svg" version="1.1" xmlns="http://www.w3.org/2000/svg" xmlns:xlink="http://www.w3.org/1999/xlink" width="400" height="400" viewBox="0, 0, 400,400"><g id="svgg"><path id="path0" d="M19.854 14.567 C 17.235 15.806,14.964 18.093,13.778 20.685 L 12.800 22.824 12.800 199.997 L 12.800 377.170 13.657 379.461 C 15.980 385.668,19.495 387.200,31.415 387.200 L 40.000 387.200 40.000 223.600 C 40.000 133.620,40.144 60.000,40.320 60.000 C 40.496 60.000,114.136 133.620,203.965 223.600 L 367.291 387.200 372.234 387.200 C 379.392 387.200,383.161 385.134,385.538 379.904 L 386.400 378.009 386.400 200.819 L 386.400 23.630 385.543 21.339 C 383.245 15.198,379.662 13.600,368.185 13.600 L 360.000 13.600 360.000 177.200 C 360.000 267.180,359.856 340.800,359.680 340.800 C 359.504 340.800,285.864 267.180,196.035 177.200 L 32.709 13.600 27.254 13.623 C 22.420 13.643,21.579 13.751,19.854 14.567 M51.600 13.902 C 51.600 14.068,57.586 20.188,64.902 27.502 L 78.204 40.800 130.693 40.800 L 183.182 40.800 187.743 50.100 C 190.252 55.215,194.238 63.360,196.600 68.200 C 198.963 73.040,203.057 81.410,205.698 86.800 C 208.340 92.190,212.480 100.650,214.898 105.600 C 217.317 110.550,221.323 118.740,223.800 123.800 C 226.278 128.860,230.329 137.140,232.801 142.200 C 235.274 147.260,239.324 155.540,241.800 160.600 C 244.276 165.660,248.325 173.940,250.798 179.000 C 253.272 184.060,257.234 192.160,259.603 197.000 C 261.972 201.840,266.462 211.020,269.580 217.400 C 272.698 223.780,277.248 233.075,279.690 238.056 L 284.131 247.111 313.047 276.041 C 328.950 291.952,342.070 304.863,342.202 304.732 C 342.425 304.509,340.846 301.193,329.000 277.000 C 326.522 271.940,322.471 263.660,319.999 258.600 C 317.526 253.540,313.476 245.260,311.000 240.200 C 308.524 235.140,304.475 226.860,302.001 221.800 C 299.528 216.740,295.477 208.460,293.000 203.400 C 290.522 198.340,286.472 190.060,284.000 185.000 C 281.528 179.940,277.300 171.300,274.605 165.800 C 271.910 160.300,267.947 152.200,265.800 147.800 C 263.652 143.400,259.557 135.030,256.700 129.200 C 253.844 123.370,249.616 114.730,247.306 110.000 C 244.995 105.270,240.990 97.080,238.405 91.800 C 235.821 86.520,232.037 78.780,229.996 74.600 C 227.956 70.420,223.432 61.182,219.943 54.071 C 216.454 46.960,213.600 41.065,213.600 40.971 C 213.600 40.877,243.840 40.800,280.800 40.800 L 348.000 40.800 348.000 27.200 L 348.000 13.600 199.800 13.600 C 118.290 13.600,51.600 13.736,51.600 13.902 M52.000 374.000 L 52.000 387.200 200.200 387.200 C 281.710 387.200,348.400 387.064,348.400 386.898 C 348.400 386.731,342.594 380.791,335.498 373.698 L 322.595 360.800 187.298 360.800 L 52.000 360.800 52.000 374.000 " stroke="none" fill="#116c5f" fill-rule="evenodd"></path><path id="path1" d="M6.206 0.293 C 5.769 0.404,5.136 0.789,4.800 1.147 C 4.464 1.506,3.843 1.992,3.421 2.227 C 2.999 2.461,2.461 2.999,2.227 3.421 C 1.992 3.843,1.440 4.521,1.000 4.928 C 0.202 5.665,0.200 6.180,0.200 200.000 C 0.200 393.820,0.202 394.335,1.000 395.072 C 1.440 395.479,1.992 396.157,2.227 396.579 C 2.461 397.001,2.999 397.539,3.421 397.773 C 3.843 398.008,4.521 398.560,4.928 399.000 C 6.097 400.265,393.903 400.265,395.072 399.000 C 395.479 398.560,396.157 398.008,396.579 397.773 C 397.001 397.539,397.539 397.001,397.773 396.579 C 398.008 396.157,398.560 395.479,399.000 395.072 C 399.798 394.335,399.800 393.820,399.800 200.000 C 399.800 6.180,399.798 5.665,399.000 4.928 C 398.560 4.521,398.008 3.843,397.773 3.421 C 397.539 2.999,397.001 2.461,396.579 2.227 C 396.157 1.992,395.479 1.440,395.072 1.000 C 394.364 0.233,9.195 -0.467,6.206 0.293 M196.035 177.200 C 285.864 267.180,359.504 340.800,359.680 340.800 C 359.856 340.800,360.000 267.180,360.000 177.200 L 360.000 13.600 368.185 13.600 C 379.662 13.600,383.245 15.198,385.543 21.339 L 386.400 23.630 386.400 200.819 L 386.400 378.009 385.538 379.904 C 383.161 385.134,379.392 387.200,372.234 387.200 L 367.291 387.200 203.965 223.600 C 114.136 133.620,40.496 60.000,40.320 60.000 C 40.144 60.000,40.000 133.620,40.000 223.600 L 40.000 387.200 31.415 387.200 C 19.495 387.200,15.980 385.668,13.657 379.461 L 12.800 377.170 12.800 199.997 L 12.800 22.824 13.778 20.685 C 16.167 15.463,19.617 13.655,27.254 13.623 L 32.709 13.600 196.035 177.200 M348.000 27.200 L 348.000 40.800 280.800 40.800 C 243.840 40.800,213.600 40.877,213.600 40.971 C 213.600 41.065,216.454 46.960,219.943 54.071 C 223.432 61.182,227.956 70.420,229.996 74.600 C 232.037 78.780,235.821 86.520,238.405 91.800 C 240.990 97.080,244.995 105.270,247.306 110.000 C 249.616 114.730,253.844 123.370,256.700 129.200 C 259.557 135.030,263.652 143.400,265.800 147.800 C 267.947 152.200,271.910 160.300,274.605 165.800 C 277.300 171.300,281.528 179.940,284.000 185.000 C 286.472 190.060,290.522 198.340,293.000 203.400 C 295.477 208.460,299.528 216.740,302.001 221.800 C 304.475 226.860,308.524 235.140,311.000 240.200 C 313.476 245.260,317.526 253.540,319.999 258.600 C 322.471 263.660,326.522 271.940,329.000 277.000 C 340.846 301.193,342.425 304.509,342.202 304.732 C 342.070 304.863,328.950 291.952,313.047 276.041 L 284.131 247.111 279.690 238.056 C 277.248 233.075,272.698 223.780,269.580 217.400 C 266.462 211.020,261.972 201.840,259.603 197.000 C 257.234 192.160,253.272 184.060,250.798 179.000 C 248.325 173.940,244.276 165.660,241.800 160.600 C 239.324 155.540,235.274 147.260,232.801 142.200 C 230.329 137.140,226.278 128.860,223.800 123.800 C 221.323 118.740,217.317 110.550,214.898 105.600 C 212.480 100.650,208.340 92.190,205.698 86.800 C 203.057 81.410,198.963 73.040,196.600 68.200 C 194.238 63.360,190.252 55.215,187.743 50.100 L 183.182 40.800 130.693 40.800 L 78.204 40.800 64.902 27.502 C 57.586 20.188,51.600 14.068,51.600 13.902 C 51.600 13.736,118.290 13.600,199.800 13.600 L 348.000 13.600 348.000 27.200 M335.498 373.698 C 342.594 380.791,348.400 386.731,348.400 386.898 C 348.400 387.064,281.710 387.200,200.200 387.200 L 52.000 387.200 52.000 374.000 L 52.000 360.800 187.298 360.800 L 322.595 360.800 335.498 373.698 " stroke="none" fill="#000000" fill-rule="evenodd"></path></g></svg>