<svg id="Layer_4" data-name="Layer 4" xmlns="http://www.w3.org/2000/svg" xmlns:xlink="http://www.w3.org/1999/xlink" viewBox="0 0 614.02 657.88"><defs><style>.cls-1,.cls-2{stroke:#000;stroke-miterlimit:10;stroke-width:5px;}.cls-1{fill:url(#linear-gradient);}.cls-2{fill:url(#linear-gradient-2);}</style><linearGradient id="linear-gradient" x1="275.28" y1="794.57" x2="662.27" y2="794.57" gradientUnits="userSpaceOnUse"><stop offset="0" stop-color="#262122"/><stop offset="0.94" stop-color="#444241"/><stop offset="1" stop-color="#464443"/></linearGradient><linearGradient id="linear-gradient-2" x1="728.38" y1="505.99" x2="802.05" y2="1047.76" gradientUnits="userSpaceOnUse"><stop offset="0" stop-color="#351a9b"/><stop offset="0.46" stop-color="#263d81"/><stop offset="1" stop-color="#116c5f"/></linearGradient></defs><path class="cls-1" d="M661.9,797.26a2,2,0,0,1,.37,1.15v231.4a2,2,0,0,1-3.63,1.15l-31.53-44.73L434.47,712.85a2,2,0,0,0-3.64,1.16v266.6c0,13.3-.81,26.55-3.93,39.51a137.45,137.45,0,0,1-5.69,18.16,125.61,125.61,0,0,1-9.54,19.32,115.71,115.71,0,0,1-34.56,36.19,133.79,133.79,0,0,1-27,13.92,174.49,174.49,0,0,1-34.81,9.15,245.46,245.46,0,0,1-38,2.94,2,2,0,0,1-2-2V608.54c0-13.3.81-26.55,3.93-39.51a137.45,137.45,0,0,1,5.69-18.16,125.61,125.61,0,0,1,9.54-19.32A115.88,115.88,0,0,1,329,495.35a134.26,134.26,0,0,1,27-13.91,174.49,174.49,0,0,1,34.81-9.15,246.78,246.78,0,0,1,39-2.94,2,2,0,0,1,1.64.85L627.11,747.89Z" transform="translate(-272.78 -466.85)"/><path class="cls-2" d="M884.3,680.86V983c0,13.3-.82,26.55-3.93,39.51a137.45,137.45,0,0,1-5.69,18.16,126.52,126.52,0,0,1-9.54,19.32,116.5,116.5,0,0,1-14.37,19,118,118,0,0,1-20.19,17.2,134.26,134.26,0,0,1-27,13.91,174.49,174.49,0,0,1-34.81,9.15,247.09,247.09,0,0,1-40,2.94h-3.35a2,2,0,0,1-1.62-.82l-28-38.36-25.49-35.6a3.5,3.5,0,0,1-.66-2V814.5a2,2,0,0,1,3.63-1.15l22.52,31.95L725.11,887a2,2,0,0,0,3.63-1.15V475.45a2,2,0,0,1,3.62-1.19L884,680A1.5,1.5,0,0,1,884.3,680.86Z" transform="translate(-272.78 -466.85)"/></svg>